<svg width="70" height="123" viewBox="0 0 70 123" fill="none" xmlns="http://www.w3.org/2000/svg">
<path d="M66.0699 111.921C66.0699 113.014 65.8227 114.131 65.3284 115.274C64.8835 116.416 64.5127 117.484 64.2161 118.477C63.5734 118.626 63.0297 118.8 62.5847 118.999C62.1893 119.148 61.7938 119.297 61.3983 119.446C61.0028 119.595 60.5579 119.744 60.0636 119.893C59.5692 119.992 58.9266 120.042 58.1356 120.042C57.6907 120.042 57.3941 120.091 57.2458 120.191C57.0975 120.29 56.9492 120.414 56.8008 120.563C56.6525 120.712 56.4795 120.836 56.2818 120.936C56.084 121.035 55.738 121.085 55.2436 121.085C54.6504 121.085 54.0325 121.01 53.3898 120.861C52.7966 120.712 52.154 120.588 51.4619 120.489C51.4619 120.538 51.4371 120.588 51.3877 120.638C51.3877 120.687 51.3877 120.762 51.3877 120.861C51.3383 120.96 51.3136 121.035 51.3136 121.085C51.017 121.085 50.6709 120.985 50.2754 120.787C49.8799 120.588 49.4597 120.489 49.0148 120.489H40.8581C39.4244 120.489 38.065 120.662 36.7797 121.01C35.4944 121.358 34.1596 121.532 32.7754 121.532C31.7867 121.532 30.8227 121.457 29.8835 121.308C28.9442 121.159 27.9802 121.085 26.9915 121.085C24.9153 121.085 22.8884 121.308 20.911 121.755C18.9336 122.252 16.9068 122.5 14.8305 122.5C12.952 122.5 11.0487 122.202 9.12076 121.606C7.1928 121.01 5.51201 120.191 4.07839 119.148C3.3863 117.31 2.69421 115.522 2.00212 113.784C1.35946 111.996 1.03814 110.108 1.03814 108.122C1.03814 106.88 1.28531 105.713 1.77966 104.62C2.27401 103.528 2.52119 102.361 2.52119 101.119C2.52119 100.523 2.42232 99.9767 2.22458 99.48C2.02684 98.9337 1.80438 98.4122 1.5572 97.9156C1.31003 97.4189 1.08757 96.9223 0.889831 96.4256C0.69209 95.9289 0.59322 95.4571 0.59322 95.0101C0.59322 94.2651 0.69209 93.5202 0.889831 92.7752C1.08757 91.9805 1.31003 91.2107 1.5572 90.4657C1.80438 89.7208 2.02684 88.9758 2.22458 88.2308C2.42232 87.4361 2.52119 86.6415 2.52119 85.8468C2.52119 83.8106 2.27401 81.7991 1.77966 79.8125C1.28531 77.7762 1.03814 75.7151 1.03814 73.6291C1.03814 71.4935 1.13701 69.3579 1.33475 67.2223C1.53249 65.0867 1.63136 62.9014 1.63136 60.6664L1.48305 48.8212C1.48305 47.9769 1.4089 47.1822 1.26059 46.4373C1.11229 45.6923 1.03814 44.8976 1.03814 44.0533C1.03814 43.06 1.21116 42.0667 1.5572 41.0734C1.90325 40.0801 2.07627 39.0868 2.07627 38.0935C2.07627 37.3981 1.9774 36.7276 1.77966 36.082C1.58192 35.3867 1.48305 34.6914 1.48305 33.996C1.48305 33.3007 1.58192 32.6302 1.77966 31.9846C1.9774 31.2893 2.07627 30.594 2.07627 29.8986C2.07627 28.657 1.90325 27.465 1.5572 26.3227C1.21116 25.1308 1.03814 23.9139 1.03814 22.6723C1.03814 21.6293 1.16172 20.5615 1.4089 19.4689C1.70551 18.3266 2.12571 17.2836 2.66949 16.34C3.26271 15.3963 3.97952 14.6265 4.81992 14.0305C5.66031 13.3849 6.67373 13.062 7.86017 13.062C8.55226 13.062 9.39266 13.1117 10.3814 13.211C11.4195 13.3104 12.2599 13.5339 12.9025 13.8815C13.4958 14.1298 14.089 14.6513 14.6822 15.446C15.3249 16.191 15.9181 17.0353 16.4619 17.9789C17.0057 18.8729 17.4753 19.7917 17.8708 20.7354C18.2662 21.679 18.5381 22.4736 18.6864 23.1193C18.9831 24.6589 19.1561 26.2482 19.2055 27.8872C19.3044 29.4765 19.3538 31.1154 19.3538 32.8041C19.3538 34.443 19.3044 36.1068 19.2055 37.7955C19.1561 39.4344 19.1314 41.0237 19.1314 42.5633C19.1314 44.6493 19.2302 46.7353 19.428 48.8212C19.6257 50.9072 19.7246 53.0428 19.7246 55.2281C19.7246 56.7677 19.5021 58.2825 19.0572 59.7724C18.6617 61.2624 18.464 62.7772 18.464 64.3168C18.464 65.4591 18.6617 66.527 19.0572 67.5203C19.5021 68.4639 19.7246 69.4324 19.7246 70.4257C19.7246 72.611 19.6504 74.7466 19.5021 76.8326C19.3538 78.8688 19.2797 80.9548 19.2797 83.0904C19.2797 85.1764 19.3291 87.2126 19.428 89.1993C19.5268 91.1859 19.5763 93.1725 19.5763 95.1591C19.5763 96.1524 19.5516 97.1209 19.5021 98.0646C19.4527 98.9585 19.3785 99.8774 19.2797 100.821C19.5763 101.814 20.5403 102.51 22.1716 102.907C23.803 103.255 25.6321 103.478 27.6589 103.577C29.6857 103.627 31.6631 103.602 33.5911 103.503C35.5191 103.354 36.928 103.279 37.8178 103.279C38.5099 103.279 39.1773 103.379 39.8199 103.577C40.512 103.776 41.2041 103.875 41.8962 103.875C42.9838 103.875 44.0219 103.702 45.0106 103.354C45.9993 103.006 47.0374 102.832 48.125 102.832C48.8171 102.832 49.4597 102.907 50.053 103.056C50.6956 103.205 51.363 103.279 52.0551 103.279C53.7359 103.379 55.1695 103.528 56.3559 103.726C57.5424 103.875 58.6299 104.173 59.6186 104.62C60.6073 105.067 61.5219 105.688 62.3623 106.483C63.2521 107.278 64.2161 108.345 65.2542 109.686C65.798 110.382 66.0699 111.127 66.0699 111.921Z" fill="#1D174A"/>
<path d="M70 41.7935C69.8023 42.0419 69.6787 42.464 69.6292 43.06C69.6292 43.656 69.6292 44.3016 69.6292 44.997C69.6787 45.6923 69.7281 46.3628 69.7775 47.0084C69.827 47.6541 69.8517 48.1507 69.8517 48.4984C69.8517 49.0447 69.827 49.591 69.7775 50.1373C69.7775 50.634 69.7034 51.1555 69.5551 51.7018L68.5911 53.1173C68.4922 53.4153 68.4675 53.7133 68.517 54.0112C68.5664 54.2596 68.5911 54.5079 68.5911 54.7562V55.1287L67.553 55.7247C67.1575 56.569 66.8114 57.463 66.5148 58.4066C66.2182 59.3503 65.8722 60.2939 65.4767 61.2376C65.1307 62.1316 64.6857 63.0007 64.142 63.845C63.6476 64.6397 63.0049 65.335 62.214 65.931C61.9668 66.08 61.7196 66.1545 61.4725 66.1545C61.2253 66.1545 60.9781 66.2786 60.7309 66.527C59.8905 67.1726 59.149 67.8679 58.5064 68.6129C57.8637 69.3082 56.9739 69.7304 55.8369 69.8794C55.4414 70.4754 54.7246 71.3197 53.6864 72.4123C52.6977 73.4553 51.6102 74.5479 50.4237 75.6902C49.2867 76.8326 48.1744 77.9004 47.0869 78.8937C45.9993 79.8373 45.1836 80.4581 44.6398 80.7561C44.2938 80.9548 43.923 81.079 43.5275 81.1286C43.1321 81.1286 42.7366 81.1535 42.3411 81.2031C41.9456 81.2031 41.5501 81.2528 41.1547 81.3521C40.8086 81.4018 40.4873 81.5508 40.1907 81.7991C39.4492 82.3951 38.6088 82.9414 37.6695 83.4381C36.7797 83.8851 35.8157 84.1582 34.7775 84.2576C34.2832 84.9032 33.6653 85.3999 32.9237 85.7475C32.2316 86.0952 31.4901 86.418 30.6992 86.716C29.9082 87.014 29.1419 87.3368 28.4004 87.6845C27.6589 88.0321 26.9915 88.504 26.3983 89.0999C25.4096 89.3979 24.3715 89.5469 23.2839 89.5469C22.1963 89.5469 21.1088 89.7208 20.0212 90.0684C19.5763 91.8067 19.2797 93.545 19.1314 95.2833C18.9831 96.9719 18.9089 98.6854 18.9089 100.424C18.9089 102.162 18.9336 103.9 18.9831 105.639C19.0819 107.377 19.1314 109.09 19.1314 110.779V112.12C18.5876 112.766 18.0685 113.386 17.5742 113.982C17.0798 114.628 16.5607 115.174 16.0169 115.621C15.4732 116.118 14.8305 116.49 14.089 116.739C13.3969 117.037 12.5812 117.186 11.6419 117.186C10.3566 117.186 9.12076 116.937 7.93432 116.441C6.79732 115.994 5.61088 115.572 4.375 115.174C3.97952 114.727 3.70763 114.107 3.55932 113.312C3.46045 112.468 3.28743 111.772 3.04025 111.226C2.19986 110.829 1.65607 110.506 1.4089 110.257C1.16172 110.009 1.03814 109.463 1.03814 108.618C1.03814 108.171 0.865113 107.774 0.519068 107.427C0.173023 107.079 0 106.508 0 105.713C0 104.422 0.173023 103.056 0.519068 101.616C0.914548 100.175 1.23588 98.8095 1.48305 97.5182C1.63136 96.5746 1.65607 95.7303 1.5572 94.9853C1.50777 94.2403 1.48305 93.396 1.48305 92.4524C1.48305 91.8564 1.63136 91.2604 1.92797 90.6644C1.8291 88.7274 1.77966 86.7905 1.77966 84.8535C1.8291 82.8669 1.8291 80.9051 1.77966 78.9682C1.73023 77.0312 1.60664 75.1191 1.4089 73.2318C1.26059 71.2948 0.939266 69.3579 0.444915 67.4209C0.543785 66.9243 0.69209 66.4773 0.889831 66.08C1.13701 65.633 1.35946 65.2108 1.5572 64.8135C1.80438 64.3665 2.00212 63.9195 2.15042 63.4725C2.29873 63.0255 2.37288 62.5289 2.37288 61.9826C2.37288 60.7409 2.15042 59.5986 1.70551 58.5556C1.26059 57.463 1.03814 56.3207 1.03814 55.1287C1.03814 54.1354 1.11229 53.3159 1.26059 52.6703C1.45833 52.0246 1.68079 51.4535 1.92797 50.9568C2.17514 50.4602 2.3976 50.0132 2.59534 49.6159C2.79308 49.2185 2.94138 48.7467 3.04025 48.2004C2.89195 47.9521 2.74364 47.7286 2.59534 47.5299C2.44703 47.3312 2.37288 47.1077 2.37288 46.8594C2.37288 46.6111 2.44703 46.4124 2.59534 46.2634C2.74364 46.1144 2.89195 45.9654 3.04025 45.8164C2.94138 45.1708 2.74364 44.5996 2.44703 44.103C2.19986 43.5567 2.02684 43.0103 1.92797 42.464C1.63136 40.6761 1.31003 38.7639 0.963983 36.7277C0.617938 34.6417 0.444915 32.7296 0.444915 30.9913C0.444915 29.4517 0.59322 27.9369 0.889831 26.4469C1.18644 24.9569 1.33475 23.4173 1.33475 21.828C1.33475 20.2884 1.03814 18.7736 0.444915 17.2836C1.03814 16.6876 1.43362 15.9923 1.63136 15.1976C1.87853 14.3533 2.17514 13.4842 2.52119 12.5902C2.86723 11.6962 3.36158 10.7774 4.00424 9.83377C4.69633 8.84046 5.83333 7.84715 7.41525 6.85384C8.15678 6.40685 8.99718 5.88536 9.93644 5.28938C10.8757 4.64373 11.815 4.19674 12.7542 3.94841C13.7429 3.65042 14.7316 3.45175 15.7203 3.35242C16.7585 3.20343 17.7966 3.10409 18.8347 3.05443C19.8729 2.9551 20.911 2.85577 21.9492 2.75644C22.9873 2.60744 24.0254 2.35911 25.0636 2.01145C26.1017 1.61413 27.1151 1.19197 28.1038 0.744983C29.0925 0.248328 30.2048 0 31.4407 0C32.1822 0 32.899 0.124164 33.5911 0.372491C34.3326 0.571153 35.0494 0.819481 35.7415 1.11747C36.4336 1.3658 37.101 1.61413 37.7436 1.86246C38.4357 2.06112 39.1525 2.16045 39.8941 2.16045C40.5862 2.16045 41.2782 2.08595 41.9703 1.93696C42.6624 1.78796 43.3545 1.66379 44.0466 1.56446C45.4802 2.25978 46.8644 3.00476 48.1992 3.79941C49.5833 4.54439 50.9675 5.26454 52.3517 5.95986C52.6483 6.10886 52.9696 6.20819 53.3157 6.25785C53.7112 6.25785 54.0572 6.30752 54.3538 6.40685C56.0346 7.10217 57.3694 8.04581 58.3581 9.23779C59.3962 10.3801 60.5332 11.5721 61.7691 12.8137C61.9668 13.1117 62.1646 13.509 62.3623 14.0057C62.6095 14.5023 62.8072 15.0487 62.9555 15.6446C63.1533 16.2406 63.351 16.8366 63.5487 17.4326C63.7465 17.9789 63.9689 18.4259 64.2161 18.7736C64.3644 19.0716 64.5869 19.2951 64.8835 19.444C65.1801 19.593 65.4025 19.8414 65.5508 20.189C65.798 20.487 65.8969 20.8099 65.8475 21.1575C65.8475 21.5052 65.971 21.828 66.2182 22.126C66.4654 22.6723 66.8114 23.1938 67.2564 23.6905C67.7507 24.1374 68.1956 24.6341 68.5911 25.1804C68.5911 27.9617 68.7888 30.743 69.1843 33.5242C69.5798 36.3055 69.8517 39.0619 70 41.7935ZM51.9068 35.3867C51.9068 34.4927 51.7832 33.6484 51.536 32.8537C51.3383 32.0094 51.0911 31.1899 50.7945 30.3953C50.5473 29.551 50.3249 28.7067 50.1271 27.8624C49.9294 26.9684 49.8552 26.0744 49.9047 25.1804C49.3114 24.5844 48.5946 24.0878 47.7542 23.6905C46.9633 23.2931 46.2218 22.7716 45.5297 22.126C45.0847 21.1823 44.4174 20.5367 43.5275 20.189C42.6871 19.7917 41.7479 19.5682 40.7097 19.5185C39.6716 19.4192 38.6088 19.4192 37.5212 19.5185C36.4831 19.6179 35.5191 19.6675 34.6292 19.6675C33.4922 19.6675 32.3305 19.5185 31.1441 19.2206C30.0071 18.9226 28.8701 18.7736 27.7331 18.7736C25.7556 18.7736 23.8771 19.3199 22.0975 20.4125C20.3178 21.4555 19.0078 22.8461 18.1674 24.5844C18.1674 25.1804 18.1921 25.7764 18.2415 26.3724C18.291 26.9684 18.3157 27.5395 18.3157 28.0858C18.3157 28.7812 18.2415 29.4765 18.0932 30.1718C17.9944 30.8175 17.8213 31.4383 17.5742 32.0343C17.9696 32.9779 18.2662 33.9464 18.464 34.9397C18.7112 35.8833 18.8347 36.8518 18.8347 37.8451C18.8347 38.8881 18.7112 39.9559 18.464 41.0485C18.2662 42.1412 18.0191 43.2338 17.7225 44.3265C17.4753 45.3694 17.2281 46.3876 16.9809 47.3809C16.7832 48.3742 16.6843 49.3179 16.6843 50.2118C16.6843 51.3045 16.8821 52.3723 17.2775 53.4153C17.7225 54.4582 18.0191 55.526 18.1674 56.6187C18.3157 58.3073 18.3157 60.0208 18.1674 61.7591C18.0685 63.4477 18.0191 65.1363 18.0191 66.825C18.0191 67.9176 18.0685 68.9606 18.1674 69.9539C18.2662 70.9472 18.4393 71.8908 18.6864 72.7848C19.9223 72.8345 21.0593 72.7351 22.0975 72.4868C23.185 72.1888 24.2232 71.8412 25.2119 71.4438C26.25 70.9969 27.2634 70.525 28.2521 70.0284C29.2408 69.4821 30.3037 68.9357 31.4407 68.3894C32.1328 68.0914 32.8496 67.8183 33.5911 67.5699C34.3821 67.2719 35.1236 66.9243 35.8157 66.527C36.2112 66.2786 36.8044 65.782 37.5953 65.037C38.4357 64.292 39.2761 63.4725 40.1165 62.5785C41.0064 61.6846 41.822 60.8403 42.5636 60.0456C43.3051 59.2013 43.7994 58.5556 44.0466 58.1087C44.1949 57.8603 44.2691 57.612 44.2691 57.3637C44.2691 57.1153 44.3927 56.867 44.6398 56.6187C44.7881 56.4697 45.0106 56.3952 45.3072 56.3952C45.6038 56.3952 45.8263 56.3207 45.9746 56.1717C46.1229 56.0227 46.3701 55.7495 46.7161 55.3522C47.1116 54.9052 47.5071 54.4582 47.9025 54.0112C48.298 53.5146 48.6441 53.0428 48.9407 52.5958C49.2373 52.1488 49.4103 51.8508 49.4597 51.7018C49.7069 51.0065 49.7564 50.2863 49.6081 49.5413C49.5092 48.7467 49.4597 47.9521 49.4597 47.1574C49.4597 46.4124 49.5339 45.7668 49.6822 45.2205C49.8305 44.6245 49.9788 44.0036 50.1271 43.358C50.3249 42.7123 50.4979 42.017 50.6462 41.272C50.7945 40.5271 50.8686 39.6331 50.8686 38.5901C50.8686 37.8451 51.0417 37.2491 51.3877 36.8021C51.7338 36.3552 51.9068 35.8833 51.9068 35.3867Z" fill="#1D174A"/>
</svg>
